<?xml version="1.0" encoding="UTF-8"?>
<svg width="4000px" height="4000px" viewBox="0 0 4000 4000" version="1.1" xmlns="http://www.w3.org/2000/svg" xmlns:xlink="http://www.w3.org/1999/xlink">
    <!-- Generator: Sketch 62 (91390) - https://sketch.com -->
    <title>Land Coverage</title>
    <desc>Created with Sketch.</desc>
    <defs>
        <path d="M382.587888,7.59649427 C385.441969,12.7146323 385.66358,50.3593128 385.671302,714.407445 L385.671529,1498.40849 L390.468302,1500.14936 C406.057817,1505.37195 421.647332,1518.03277 431.583506,1533.54228 C452.826361,1566.61868 462.933849,1607.92462 462.933849,1660.15052 C462.762535,1714.27554 450.770601,1760.64581 427.814612,1796.41263 C419.420258,1809.23172 406.74307,1822.8421 398.691343,1827.43165 C393.723256,1830.4386 392.352749,1832.49598 389.440422,1843.09942 C381.388695,1871.11149 376.077981,1913.68351 372.137774,1983.47631 C371.109894,2002.15102 370.767267,2004.2084 370.424641,1993.60496 C369.568074,1944.86079 359.803213,1878.70799 348.667845,1846.89767 C344.385012,1834.55337 343.357132,1833.12902 334.962777,1827.27339 C268.493198,1780.90312 259.756217,1615.83763 319.544576,1532.75098 C326.91105,1522.46406 344.213698,1507.11281 352.608052,1503.47282 L358.60402,1500.7824 L357.404826,756.1677 C356.548259,137.369938 356.719573,10.9199605 358.60402,7.59649427 C364.428673,-2.53216476 377.105861,-2.53216476 382.587888,7.59649427 Z M318.996401,1309.53256 C333.876537,1316.64936 345.84906,1333.41338 350.980142,1354.60563 C354.229827,1368.04848 353.887755,1404.89769 350.124962,1422.13617 C337.468294,1482.8662 305.484554,1540.90766 262.725542,1580.9199 C237.583243,1604.48442 213.980269,1617.76911 191.916619,1620.45768 C183.877925,1621.40659 182.3386,1622.3555 169.681933,1634.53313 C144.026526,1659.20471 113.924182,1699.6914 80.7431891,1753.93723 C77.8355763,1758.68177 75.4410717,1762.16109 75.4410717,1761.37034 C75.4410717,1760.73773 78.1776484,1755.20244 81.4273333,1749.1927 C100.754406,1713.76685 128.633282,1647.18522 136.329904,1618.40172 L140.947877,1600.68879 L136.329904,1591.19972 C119.910444,1557.19723 124.528417,1501.36988 148.302427,1445.54253 C176.694411,1379.59351 224.75554,1326.61288 271.961489,1309.21626 C286.15748,1303.99727 307.536986,1304.15542 318.996401,1309.53256 Z M579.847703,1416.24597 C604.610995,1460.92553 616.476739,1501.96101 616.476739,1542.04585 C616.476739,1564.54407 613.725262,1578.64506 606.502635,1592.42918 C602.37542,1600.50953 602.37542,1600.66797 604.954929,1612.55083 C610.457883,1636.9503 629.890188,1685.59081 651.558069,1729.00286 C666.519224,1758.94767 667.722995,1761.48268 666.691191,1761.48268 C666.347257,1761.48268 664.283649,1758.47235 662.220042,1754.82827 C656.029219,1743.57917 636.940848,1714.42655 623.699365,1695.73085 C604.610995,1669.11324 590.85361,1652.79411 574.344749,1637.10874 C559.727528,1623.00774 559.211627,1622.69087 548.549654,1620.94805 C487.501261,1611.28332 417.510568,1525.88516 393.951048,1432.24823 C388.963996,1412.28502 387.588257,1371.56642 391.371538,1355.56417 C395.154819,1339.72035 402.549413,1325.93623 411.491713,1318.01433 C452.591898,1281.57356 530.493087,1327.0453 579.847703,1416.24597 Z M301.778733,1065.45707 C386.278198,1069.2536 362.502033,1205.61225 260.726361,1300.20909 C221.726608,1336.4343 185.46368,1355.25875 151.082319,1357.31521 C132.779803,1358.26434 128.674566,1360.1626 104.385246,1378.3543 C84.5432661,1393.06585 37.3330387,1437.2005 16.1226466,1461.08699 C0.214852548,1478.64594 -5.08774547,1483.3916 5.51745056,1470.57831 C29.8067705,1440.83884 71.0301938,1380.72713 85.0564208,1354.78419 C97.2010807,1332.47958 97.7142354,1330.10675 94.6353075,1318.08441 C81.2932867,1265.88214 121.319349,1180.14387 187.003144,1119.71579 C208.042484,1100.41677 229.252876,1086.17979 252.002732,1076.05571 C272.69997,1067.03895 283.818321,1064.50793 301.778733,1065.45707 Z M446.261719,1065.53211 C464.594505,1066.32295 473.161228,1068.69548 493.892696,1078.1856 C561.569804,1109.0285 631.131591,1196.02129 646.380357,1268.93706 C649.464377,1284.12126 649.464377,1308.95375 646.209022,1320.18373 C643.296337,1330.62286 643.296337,1330.62286 658.031099,1357.82788 C671.737855,1382.81853 710.288107,1438.65209 733.760926,1467.43879 C742.498983,1478.0361 739.757632,1476.61258 729.306231,1465.06626 C691.783986,1423.46789 646.037688,1382.5022 616.910831,1364.3128 C607.316102,1358.46055 605.431423,1357.82788 595.494025,1357.82788 C529.872931,1357.66971 439.579675,1279.8507 402.914103,1191.75073 C391.777364,1165.49473 389.378681,1153.79024 389.207347,1127.69241 L389.207939,1125.66004 C389.222099,1104.39511 389.532882,1103.50525 394.518715,1093.68614 C401.029424,1081.03264 408.56814,1073.75688 420.561551,1068.69548 C428.785605,1065.21577 431.355622,1064.89943 446.261719,1065.53211 Z M325.244308,823.42826 C368.685038,843.65077 363.877369,917.431334 314.427051,992.475805 C293.135942,1024.70543 258.108633,1061.04275 229.262615,1080.47532 C201.103406,1099.43393 170.196957,1110.96708 147.017121,1110.96708 C135.513054,1110.96708 130.190277,1113.3369 109.242573,1128.18781 C93.1025385,1139.56297 46.3994606,1182.21983 23.7347317,1206.55003 C-1.33383215,1233.56604 -2.36404711,1234.51397 7.59469743,1221.55893 C50.5203205,1166.42099 83.143794,1117.12862 94.8195634,1090.11261 C98.0819108,1082.37118 98.0819108,1081.58124 95.5063734,1071.312 C79.8814466,1007.95866 140.149021,901.000545 222.222813,846.49456 C238.706252,835.593364 266.693758,822.954295 280.258255,820.268493 C294.852967,817.266714 315.285563,818.688609 325.244308,823.42826 Z M448.290606,818.889935 C480.923802,820.47188 514.415766,836.924113 552.545079,870.461357 C600.636104,912.541106 639.795938,976.293509 648.555375,1026.28299 C651.13168,1040.52049 650.101158,1070.57746 646.837838,1076.74705 C644.261533,1081.80927 644.776794,1083.39122 658.517087,1108.86054 C672.772641,1135.43722 710.901954,1190.80531 735.462727,1220.86228 C744.222164,1231.46131 741.474106,1230.03756 730.997132,1218.48936 C700.940242,1185.11031 658.17358,1145.56167 633.097546,1127.5275 C613.002367,1113.13179 608.708526,1111.23346 596.685769,1111.23346 C557.525935,1111.07526 507.373866,1083.23302 465.637726,1038.14758 C417.718455,986.41796 389.207347,927.569588 389.207347,879.95303 C389.207347,854.325513 397.279769,836.13314 412.737599,826.641467 C424.416847,819.522713 430.599979,818.098962 448.290606,818.889935 Z M299.077969,572.119259 C322.768228,572.119259 337.360055,580.018562 346.973494,597.870986 C372.552107,645.898747 334.270021,740.216423 261.997563,806.886539 C238.993977,828.214657 219.595431,841.643472 196.763515,851.912565 C177.364969,860.601799 162.258137,864.393464 146.636299,864.393464 C136.851192,864.393464 135.134506,865.025408 123.461045,872.134781 C116.594303,876.400404 106.637527,883.193805 101.487471,887.301442 C83.6339419,901.204215 44.4935131,937.85698 23.8932874,959.975028 C-1.34198902,986.990644 -2.37200031,987.93856 7.58477544,974.983704 C49.6435695,921.110458 83.4622734,870.080962 94.7923975,843.539304 C98.0540999,835.797988 98.0540999,835.008057 95.4790717,824.738964 C78.9988911,758.068848 146.121293,644.476873 231.955567,593.921335 C258.220855,578.438701 277.6194,572.119259 299.077969,572.119259 Z M444.911579,570.507655 C478.397956,570.507655 516.005732,589.328078 555.845934,625.861841 C567.69496,636.774524 580.917785,649.901373 585.21091,655.120482 C617.666937,694.817342 640.334638,737.835452 647.718813,774.21106 C650.981588,790.026542 650.294688,821.024886 646.516738,829.248936 C644.456038,833.993581 644.971213,835.416974 655.618163,855.660791 C671.416864,885.393897 707.65084,938.69207 735.298567,972.695356 C745.945517,985.664051 740.622042,980.761251 721.217116,960.04297 C696.66044,933.631116 654.759538,894.883186 636.384962,881.914491 C612.515186,864.83377 608.737236,863.094067 596.544761,863.094067 C520.642308,863.094067 413.657628,758.079269 392.707177,662.711914 C388.414052,643.733336 388.070602,620.800887 391.676827,608.148502 C396.485127,590.909627 409.192778,577.308312 424.991479,572.405513 C428.254254,571.298429 437.183954,570.507655 444.911579,570.507655 Z M323.857315,327.885438 C367.169133,346.860437 364.934793,417.067936 318.701147,490.59606 C272.983117,563.649809 200.968627,616.305434 146.656982,616.463559 C137.375878,616.463559 134.969666,617.254184 125.172946,622.946683 C99.0483574,638.601058 53.1584554,679.081058 17.4090186,718.454182 C0.221789402,737.429182 -2.35629498,739.484807 7.26855338,727.151057 C51.4397324,670.067933 83.0642342,622.472308 94.5796778,595.591059 C97.8452513,587.842934 97.8452513,587.052309 95.2671669,576.774184 C79.6267884,513.04981 140.641452,405.050437 222.796408,350.971687 C250.124102,332.945438 275.904946,323.932313 299.279578,323.932313 C312.17,323.932313 316.123062,324.564813 323.857315,327.885438 Z M493.756229,335.969139 C520.88057,348.76894 559.163658,378.63514 581.652827,404.86683 C615.300743,444.214364 639.849988,489.566743 647.575275,526.701966 C650.493717,541.556055 650.837063,567.155656 648.261967,576.320945 C647.231929,579.797434 646.201891,584.538101 646.201891,587.066457 C646.201891,592.439212 661.99581,622.463435 677.103038,645.850725 C688.433459,663.23317 723.798106,711.904015 735.300199,726.126016 C745.943928,739.083838 740.622064,734.185149 721.22301,713.484238 C696.673765,686.936504 654.785543,648.37908 636.416527,635.263236 C612.210628,618.196835 610.150552,617.248702 592.639902,616.142546 C547.489892,613.456168 493.927902,579.639412 450.666296,526.385922 C410.323131,476.608921 389.207347,428.254119 389.207347,385.588118 C389.207347,353.667629 401.739479,333.124739 425.773705,325.855717 C441.910971,321.11505 471.095388,325.38165 493.756229,335.969139 Z" id="path-1"></path>
        <path d="M382.587888,7.59649427 C385.441969,12.7146323 385.66358,50.3593128 385.671302,714.407445 L385.671529,1498.40849 L390.468302,1500.14936 C406.057817,1505.37195 421.647332,1518.03277 431.583506,1533.54228 C452.826361,1566.61868 462.933849,1607.92462 462.933849,1660.15052 C462.762535,1714.27554 450.770601,1760.64581 427.814612,1796.41263 C419.420258,1809.23172 406.74307,1822.8421 398.691343,1827.43165 C393.723256,1830.4386 392.352749,1832.49598 389.440422,1843.09942 C381.388695,1871.11149 376.077981,1913.68351 372.137774,1983.47631 C371.109894,2002.15102 370.767267,2004.2084 370.424641,1993.60496 C369.568074,1944.86079 359.803213,1878.70799 348.667845,1846.89767 C344.385012,1834.55337 343.357132,1833.12902 334.962777,1827.27339 C268.493198,1780.90312 259.756217,1615.83763 319.544576,1532.75098 C326.91105,1522.46406 344.213698,1507.11281 352.608052,1503.47282 L358.60402,1500.7824 L357.404826,756.1677 C356.548259,137.369938 356.719573,10.9199605 358.60402,7.59649427 C364.428673,-2.53216476 377.105861,-2.53216476 382.587888,7.59649427 Z M318.996401,1309.53256 C333.876537,1316.64936 345.84906,1333.41338 350.980142,1354.60563 C354.229827,1368.04848 353.887755,1404.89769 350.124962,1422.13617 C337.468294,1482.8662 305.484554,1540.90766 262.725542,1580.9199 C237.583243,1604.48442 213.980269,1617.76911 191.916619,1620.45768 C183.877925,1621.40659 182.3386,1622.3555 169.681933,1634.53313 C144.026526,1659.20471 113.924182,1699.6914 80.7431891,1753.93723 C77.8355763,1758.68177 75.4410717,1762.16109 75.4410717,1761.37034 C75.4410717,1760.73773 78.1776484,1755.20244 81.4273333,1749.1927 C100.754406,1713.76685 128.633282,1647.18522 136.329904,1618.40172 L140.947877,1600.68879 L136.329904,1591.19972 C119.910444,1557.19723 124.528417,1501.36988 148.302427,1445.54253 C176.694411,1379.59351 224.75554,1326.61288 271.961489,1309.21626 C286.15748,1303.99727 307.536986,1304.15542 318.996401,1309.53256 Z M579.847703,1416.24597 C604.610995,1460.92553 616.476739,1501.96101 616.476739,1542.04585 C616.476739,1564.54407 613.725262,1578.64506 606.502635,1592.42918 C602.37542,1600.50953 602.37542,1600.66797 604.954929,1612.55083 C610.457883,1636.9503 629.890188,1685.59081 651.558069,1729.00286 C666.519224,1758.94767 667.722995,1761.48268 666.691191,1761.48268 C666.347257,1761.48268 664.283649,1758.47235 662.220042,1754.82827 C656.029219,1743.57917 636.940848,1714.42655 623.699365,1695.73085 C604.610995,1669.11324 590.85361,1652.79411 574.344749,1637.10874 C559.727528,1623.00774 559.211627,1622.69087 548.549654,1620.94805 C487.501261,1611.28332 417.510568,1525.88516 393.951048,1432.24823 C388.963996,1412.28502 387.588257,1371.56642 391.371538,1355.56417 C395.154819,1339.72035 402.549413,1325.93623 411.491713,1318.01433 C452.591898,1281.57356 530.493087,1327.0453 579.847703,1416.24597 Z M301.778733,1065.45707 C386.278198,1069.2536 362.502033,1205.61225 260.726361,1300.20909 C221.726608,1336.4343 185.46368,1355.25875 151.082319,1357.31521 C132.779803,1358.26434 128.674566,1360.1626 104.385246,1378.3543 C84.5432661,1393.06585 37.3330387,1437.2005 16.1226466,1461.08699 C0.214852548,1478.64594 -5.08774547,1483.3916 5.51745056,1470.57831 C29.8067705,1440.83884 71.0301938,1380.72713 85.0564208,1354.78419 C97.2010807,1332.47958 97.7142354,1330.10675 94.6353075,1318.08441 C81.2932867,1265.88214 121.319349,1180.14387 187.003144,1119.71579 C208.042484,1100.41677 229.252876,1086.17979 252.002732,1076.05571 C272.69997,1067.03895 283.818321,1064.50793 301.778733,1065.45707 Z M446.261719,1065.53211 C464.594505,1066.32295 473.161228,1068.69548 493.892696,1078.1856 C561.569804,1109.0285 631.131591,1196.02129 646.380357,1268.93706 C649.464377,1284.12126 649.464377,1308.95375 646.209022,1320.18373 C643.296337,1330.62286 643.296337,1330.62286 658.031099,1357.82788 C671.737855,1382.81853 710.288107,1438.65209 733.760926,1467.43879 C742.498983,1478.0361 739.757632,1476.61258 729.306231,1465.06626 C691.783986,1423.46789 646.037688,1382.5022 616.910831,1364.3128 C607.316102,1358.46055 605.431423,1357.82788 595.494025,1357.82788 C529.872931,1357.66971 439.579675,1279.8507 402.914103,1191.75073 C391.777364,1165.49473 389.378681,1153.79024 389.207347,1127.69241 L389.207939,1125.66004 C389.222099,1104.39511 389.532882,1103.50525 394.518715,1093.68614 C401.029424,1081.03264 408.56814,1073.75688 420.561551,1068.69548 C428.785605,1065.21577 431.355622,1064.89943 446.261719,1065.53211 Z M325.244308,823.42826 C368.685038,843.65077 363.877369,917.431334 314.427051,992.475805 C293.135942,1024.70543 258.108633,1061.04275 229.262615,1080.47532 C201.103406,1099.43393 170.196957,1110.96708 147.017121,1110.96708 C135.513054,1110.96708 130.190277,1113.3369 109.242573,1128.18781 C93.1025385,1139.56297 46.3994606,1182.21983 23.7347317,1206.55003 C-1.33383215,1233.56604 -2.36404711,1234.51397 7.59469743,1221.55893 C50.5203205,1166.42099 83.143794,1117.12862 94.8195634,1090.11261 C98.0819108,1082.37118 98.0819108,1081.58124 95.5063734,1071.312 C79.8814466,1007.95866 140.149021,901.000545 222.222813,846.49456 C238.706252,835.593364 266.693758,822.954295 280.258255,820.268493 C294.852967,817.266714 315.285563,818.688609 325.244308,823.42826 Z M448.290606,818.889935 C480.923802,820.47188 514.415766,836.924113 552.545079,870.461357 C600.636104,912.541106 639.795938,976.293509 648.555375,1026.28299 C651.13168,1040.52049 650.101158,1070.57746 646.837838,1076.74705 C644.261533,1081.80927 644.776794,1083.39122 658.517087,1108.86054 C672.772641,1135.43722 710.901954,1190.80531 735.462727,1220.86228 C744.222164,1231.46131 741.474106,1230.03756 730.997132,1218.48936 C700.940242,1185.11031 658.17358,1145.56167 633.097546,1127.5275 C613.002367,1113.13179 608.708526,1111.23346 596.685769,1111.23346 C557.525935,1111.07526 507.373866,1083.23302 465.637726,1038.14758 C417.718455,986.41796 389.207347,927.569588 389.207347,879.95303 C389.207347,854.325513 397.279769,836.13314 412.737599,826.641467 C424.416847,819.522713 430.599979,818.098962 448.290606,818.889935 Z M299.077969,572.119259 C322.768228,572.119259 337.360055,580.018562 346.973494,597.870986 C372.552107,645.898747 334.270021,740.216423 261.997563,806.886539 C238.993977,828.214657 219.595431,841.643472 196.763515,851.912565 C177.364969,860.601799 162.258137,864.393464 146.636299,864.393464 C136.851192,864.393464 135.134506,865.025408 123.461045,872.134781 C116.594303,876.400404 106.637527,883.193805 101.487471,887.301442 C83.6339419,901.204215 44.4935131,937.85698 23.8932874,959.975028 C-1.34198902,986.990644 -2.37200031,987.93856 7.58477544,974.983704 C49.6435695,921.110458 83.4622734,870.080962 94.7923975,843.539304 C98.0540999,835.797988 98.0540999,835.008057 95.4790717,824.738964 C78.9988911,758.068848 146.121293,644.476873 231.955567,593.921335 C258.220855,578.438701 277.6194,572.119259 299.077969,572.119259 Z M444.911579,570.507655 C478.397956,570.507655 516.005732,589.328078 555.845934,625.861841 C567.69496,636.774524 580.917785,649.901373 585.21091,655.120482 C617.666937,694.817342 640.334638,737.835452 647.718813,774.21106 C650.981588,790.026542 650.294688,821.024886 646.516738,829.248936 C644.456038,833.993581 644.971213,835.416974 655.618163,855.660791 C671.416864,885.393897 707.65084,938.69207 735.298567,972.695356 C745.945517,985.664051 740.622042,980.761251 721.217116,960.04297 C696.66044,933.631116 654.759538,894.883186 636.384962,881.914491 C612.515186,864.83377 608.737236,863.094067 596.544761,863.094067 C520.642308,863.094067 413.657628,758.079269 392.707177,662.711914 C388.414052,643.733336 388.070602,620.800887 391.676827,608.148502 C396.485127,590.909627 409.192778,577.308312 424.991479,572.405513 C428.254254,571.298429 437.183954,570.507655 444.911579,570.507655 Z M323.857315,327.885438 C367.169133,346.860437 364.934793,417.067936 318.701147,490.59606 C272.983117,563.649809 200.968627,616.305434 146.656982,616.463559 C137.375878,616.463559 134.969666,617.254184 125.172946,622.946683 C99.0483574,638.601058 53.1584554,679.081058 17.4090186,718.454182 C0.221789402,737.429182 -2.35629498,739.484807 7.26855338,727.151057 C51.4397324,670.067933 83.0642342,622.472308 94.5796778,595.591059 C97.8452513,587.842934 97.8452513,587.052309 95.2671669,576.774184 C79.6267884,513.04981 140.641452,405.050437 222.796408,350.971687 C250.124102,332.945438 275.904946,323.932313 299.279578,323.932313 C312.17,323.932313 316.123062,324.564813 323.857315,327.885438 Z M493.756229,335.969139 C520.88057,348.76894 559.163658,378.63514 581.652827,404.86683 C615.300743,444.214364 639.849988,489.566743 647.575275,526.701966 C650.493717,541.556055 650.837063,567.155656 648.261967,576.320945 C647.231929,579.797434 646.201891,584.538101 646.201891,587.066457 C646.201891,592.439212 661.99581,622.463435 677.103038,645.850725 C688.433459,663.23317 723.798106,711.904015 735.300199,726.126016 C745.943928,739.083838 740.622064,734.185149 721.22301,713.484238 C696.673765,686.936504 654.785543,648.37908 636.416527,635.263236 C612.210628,618.196835 610.150552,617.248702 592.639902,616.142546 C547.489892,613.456168 493.927902,579.639412 450.666296,526.385922 C410.323131,476.608921 389.207347,428.254119 389.207347,385.588118 C389.207347,353.667629 401.739479,333.124739 425.773705,325.855717 C441.910971,321.11505 471.095388,325.38165 493.756229,335.969139 Z" id="path-3"></path>
        <path d="M382.587888,7.59649427 C385.441969,12.7146323 385.66358,50.3593128 385.671302,714.407445 L385.671529,1498.40849 L390.468302,1500.14936 C406.057817,1505.37195 421.647332,1518.03277 431.583506,1533.54228 C452.826361,1566.61868 462.933849,1607.92462 462.933849,1660.15052 C462.762535,1714.27554 450.770601,1760.64581 427.814612,1796.41263 C419.420258,1809.23172 406.74307,1822.8421 398.691343,1827.43165 C393.723256,1830.4386 392.352749,1832.49598 389.440422,1843.09942 C381.388695,1871.11149 376.077981,1913.68351 372.137774,1983.47631 C371.109894,2002.15102 370.767267,2004.2084 370.424641,1993.60496 C369.568074,1944.86079 359.803213,1878.70799 348.667845,1846.89767 C344.385012,1834.55337 343.357132,1833.12902 334.962777,1827.27339 C268.493198,1780.90312 259.756217,1615.83763 319.544576,1532.75098 C326.91105,1522.46406 344.213698,1507.11281 352.608052,1503.47282 L358.60402,1500.7824 L357.404826,756.1677 C356.548259,137.369938 356.719573,10.9199605 358.60402,7.59649427 C364.428673,-2.53216476 377.105861,-2.53216476 382.587888,7.59649427 Z M318.996401,1309.53256 C333.876537,1316.64936 345.84906,1333.41338 350.980142,1354.60563 C354.229827,1368.04848 353.887755,1404.89769 350.124962,1422.13617 C337.468294,1482.8662 305.484554,1540.90766 262.725542,1580.9199 C237.583243,1604.48442 213.980269,1617.76911 191.916619,1620.45768 C183.877925,1621.40659 182.3386,1622.3555 169.681933,1634.53313 C144.026526,1659.20471 113.924182,1699.6914 80.7431891,1753.93723 C77.8355763,1758.68177 75.4410717,1762.16109 75.4410717,1761.37034 C75.4410717,1760.73773 78.1776484,1755.20244 81.4273333,1749.1927 C100.754406,1713.76685 128.633282,1647.18522 136.329904,1618.40172 L140.947877,1600.68879 L136.329904,1591.19972 C119.910444,1557.19723 124.528417,1501.36988 148.302427,1445.54253 C176.694411,1379.59351 224.75554,1326.61288 271.961489,1309.21626 C286.15748,1303.99727 307.536986,1304.15542 318.996401,1309.53256 Z M579.847703,1416.24597 C604.610995,1460.92553 616.476739,1501.96101 616.476739,1542.04585 C616.476739,1564.54407 613.725262,1578.64506 606.502635,1592.42918 C602.37542,1600.50953 602.37542,1600.66797 604.954929,1612.55083 C610.457883,1636.9503 629.890188,1685.59081 651.558069,1729.00286 C666.519224,1758.94767 667.722995,1761.48268 666.691191,1761.48268 C666.347257,1761.48268 664.283649,1758.47235 662.220042,1754.82827 C656.029219,1743.57917 636.940848,1714.42655 623.699365,1695.73085 C604.610995,1669.11324 590.85361,1652.79411 574.344749,1637.10874 C559.727528,1623.00774 559.211627,1622.69087 548.549654,1620.94805 C487.501261,1611.28332 417.510568,1525.88516 393.951048,1432.24823 C388.963996,1412.28502 387.588257,1371.56642 391.371538,1355.56417 C395.154819,1339.72035 402.549413,1325.93623 411.491713,1318.01433 C452.591898,1281.57356 530.493087,1327.0453 579.847703,1416.24597 Z M301.778733,1065.45707 C386.278198,1069.2536 362.502033,1205.61225 260.726361,1300.20909 C221.726608,1336.4343 185.46368,1355.25875 151.082319,1357.31521 C132.779803,1358.26434 128.674566,1360.1626 104.385246,1378.3543 C84.5432661,1393.06585 37.3330387,1437.2005 16.1226466,1461.08699 C0.214852548,1478.64594 -5.08774547,1483.3916 5.51745056,1470.57831 C29.8067705,1440.83884 71.0301938,1380.72713 85.0564208,1354.78419 C97.2010807,1332.47958 97.7142354,1330.10675 94.6353075,1318.08441 C81.2932867,1265.88214 121.319349,1180.14387 187.003144,1119.71579 C208.042484,1100.41677 229.252876,1086.17979 252.002732,1076.05571 C272.69997,1067.03895 283.818321,1064.50793 301.778733,1065.45707 Z M446.261719,1065.53211 C464.594505,1066.32295 473.161228,1068.69548 493.892696,1078.1856 C561.569804,1109.0285 631.131591,1196.02129 646.380357,1268.93706 C649.464377,1284.12126 649.464377,1308.95375 646.209022,1320.18373 C643.296337,1330.62286 643.296337,1330.62286 658.031099,1357.82788 C671.737855,1382.81853 710.288107,1438.65209 733.760926,1467.43879 C742.498983,1478.0361 739.757632,1476.61258 729.306231,1465.06626 C691.783986,1423.46789 646.037688,1382.5022 616.910831,1364.3128 C607.316102,1358.46055 605.431423,1357.82788 595.494025,1357.82788 C529.872931,1357.66971 439.579675,1279.8507 402.914103,1191.75073 C391.777364,1165.49473 389.378681,1153.79024 389.207347,1127.69241 L389.207939,1125.66004 C389.222099,1104.39511 389.532882,1103.50525 394.518715,1093.68614 C401.029424,1081.03264 408.56814,1073.75688 420.561551,1068.69548 C428.785605,1065.21577 431.355622,1064.89943 446.261719,1065.53211 Z M325.244308,823.42826 C368.685038,843.65077 363.877369,917.431334 314.427051,992.475805 C293.135942,1024.70543 258.108633,1061.04275 229.262615,1080.47532 C201.103406,1099.43393 170.196957,1110.96708 147.017121,1110.96708 C135.513054,1110.96708 130.190277,1113.3369 109.242573,1128.18781 C93.1025385,1139.56297 46.3994606,1182.21983 23.7347317,1206.55003 C-1.33383215,1233.56604 -2.36404711,1234.51397 7.59469743,1221.55893 C50.5203205,1166.42099 83.143794,1117.12862 94.8195634,1090.11261 C98.0819108,1082.37118 98.0819108,1081.58124 95.5063734,1071.312 C79.8814466,1007.95866 140.149021,901.000545 222.222813,846.49456 C238.706252,835.593364 266.693758,822.954295 280.258255,820.268493 C294.852967,817.266714 315.285563,818.688609 325.244308,823.42826 Z M448.290606,818.889935 C480.923802,820.47188 514.415766,836.924113 552.545079,870.461357 C600.636104,912.541106 639.795938,976.293509 648.555375,1026.28299 C651.13168,1040.52049 650.101158,1070.57746 646.837838,1076.74705 C644.261533,1081.80927 644.776794,1083.39122 658.517087,1108.86054 C672.772641,1135.43722 710.901954,1190.80531 735.462727,1220.86228 C744.222164,1231.46131 741.474106,1230.03756 730.997132,1218.48936 C700.940242,1185.11031 658.17358,1145.56167 633.097546,1127.5275 C613.002367,1113.13179 608.708526,1111.23346 596.685769,1111.23346 C557.525935,1111.07526 507.373866,1083.23302 465.637726,1038.14758 C417.718455,986.41796 389.207347,927.569588 389.207347,879.95303 C389.207347,854.325513 397.279769,836.13314 412.737599,826.641467 C424.416847,819.522713 430.599979,818.098962 448.290606,818.889935 Z M299.077969,572.119259 C322.768228,572.119259 337.360055,580.018562 346.973494,597.870986 C372.552107,645.898747 334.270021,740.216423 261.997563,806.886539 C238.993977,828.214657 219.595431,841.643472 196.763515,851.912565 C177.364969,860.601799 162.258137,864.393464 146.636299,864.393464 C136.851192,864.393464 135.134506,865.025408 123.461045,872.134781 C116.594303,876.400404 106.637527,883.193805 101.487471,887.301442 C83.6339419,901.204215 44.4935131,937.85698 23.8932874,959.975028 C-1.34198902,986.990644 -2.37200031,987.93856 7.58477544,974.983704 C49.6435695,921.110458 83.4622734,870.080962 94.7923975,843.539304 C98.0540999,835.797988 98.0540999,835.008057 95.4790717,824.738964 C78.9988911,758.068848 146.121293,644.476873 231.955567,593.921335 C258.220855,578.438701 277.6194,572.119259 299.077969,572.119259 Z M444.911579,570.507655 C478.397956,570.507655 516.005732,589.328078 555.845934,625.861841 C567.69496,636.774524 580.917785,649.901373 585.21091,655.120482 C617.666937,694.817342 640.334638,737.835452 647.718813,774.21106 C650.981588,790.026542 650.294688,821.024886 646.516738,829.248936 C644.456038,833.993581 644.971213,835.416974 655.618163,855.660791 C671.416864,885.393897 707.65084,938.69207 735.298567,972.695356 C745.945517,985.664051 740.622042,980.761251 721.217116,960.04297 C696.66044,933.631116 654.759538,894.883186 636.384962,881.914491 C612.515186,864.83377 608.737236,863.094067 596.544761,863.094067 C520.642308,863.094067 413.657628,758.079269 392.707177,662.711914 C388.414052,643.733336 388.070602,620.800887 391.676827,608.148502 C396.485127,590.909627 409.192778,577.308312 424.991479,572.405513 C428.254254,571.298429 437.183954,570.507655 444.911579,570.507655 Z M323.857315,327.885438 C367.169133,346.860437 364.934793,417.067936 318.701147,490.59606 C272.983117,563.649809 200.968627,616.305434 146.656982,616.463559 C137.375878,616.463559 134.969666,617.254184 125.172946,622.946683 C99.0483574,638.601058 53.1584554,679.081058 17.4090186,718.454182 C0.221789402,737.429182 -2.35629498,739.484807 7.26855338,727.151057 C51.4397324,670.067933 83.0642342,622.472308 94.5796778,595.591059 C97.8452513,587.842934 97.8452513,587.052309 95.2671669,576.774184 C79.6267884,513.04981 140.641452,405.050437 222.796408,350.971687 C250.124102,332.945438 275.904946,323.932313 299.279578,323.932313 C312.17,323.932313 316.123062,324.564813 323.857315,327.885438 Z M493.756229,335.969139 C520.88057,348.76894 559.163658,378.63514 581.652827,404.86683 C615.300743,444.214364 639.849988,489.566743 647.575275,526.701966 C650.493717,541.556055 650.837063,567.155656 648.261967,576.320945 C647.231929,579.797434 646.201891,584.538101 646.201891,587.066457 C646.201891,592.439212 661.99581,622.463435 677.103038,645.850725 C688.433459,663.23317 723.798106,711.904015 735.300199,726.126016 C745.943928,739.083838 740.622064,734.185149 721.22301,713.484238 C696.673765,686.936504 654.785543,648.37908 636.416527,635.263236 C612.210628,618.196835 610.150552,617.248702 592.639902,616.142546 C547.489892,613.456168 493.927902,579.639412 450.666296,526.385922 C410.323131,476.608921 389.207347,428.254119 389.207347,385.588118 C389.207347,353.667629 401.739479,333.124739 425.773705,325.855717 C441.910971,321.11505 471.095388,325.38165 493.756229,335.969139 Z" id="path-5"></path>
        <path d="M382.587888,7.59649427 C385.441969,12.7146323 385.66358,50.3593128 385.671302,714.407445 L385.671529,1498.40849 L390.468302,1500.14936 C406.057817,1505.37195 421.647332,1518.03277 431.583506,1533.54228 C452.826361,1566.61868 462.933849,1607.92462 462.933849,1660.15052 C462.762535,1714.27554 450.770601,1760.64581 427.814612,1796.41263 C419.420258,1809.23172 406.74307,1822.8421 398.691343,1827.43165 C393.723256,1830.4386 392.352749,1832.49598 389.440422,1843.09942 C381.388695,1871.11149 376.077981,1913.68351 372.137774,1983.47631 C371.109894,2002.15102 370.767267,2004.2084 370.424641,1993.60496 C369.568074,1944.86079 359.803213,1878.70799 348.667845,1846.89767 C344.385012,1834.55337 343.357132,1833.12902 334.962777,1827.27339 C268.493198,1780.90312 259.756217,1615.83763 319.544576,1532.75098 C326.91105,1522.46406 344.213698,1507.11281 352.608052,1503.47282 L358.60402,1500.7824 L357.404826,756.1677 C356.548259,137.369938 356.719573,10.9199605 358.60402,7.59649427 C364.428673,-2.53216476 377.105861,-2.53216476 382.587888,7.59649427 Z M318.996401,1309.53256 C333.876537,1316.64936 345.84906,1333.41338 350.980142,1354.60563 C354.229827,1368.04848 353.887755,1404.89769 350.124962,1422.13617 C337.468294,1482.8662 305.484554,1540.90766 262.725542,1580.9199 C237.583243,1604.48442 213.980269,1617.76911 191.916619,1620.45768 C183.877925,1621.40659 182.3386,1622.3555 169.681933,1634.53313 C144.026526,1659.20471 113.924182,1699.6914 80.7431891,1753.93723 C77.8355763,1758.68177 75.4410717,1762.16109 75.4410717,1761.37034 C75.4410717,1760.73773 78.1776484,1755.20244 81.4273333,1749.1927 C100.754406,1713.76685 128.633282,1647.18522 136.329904,1618.40172 L140.947877,1600.68879 L136.329904,1591.19972 C119.910444,1557.19723 124.528417,1501.36988 148.302427,1445.54253 C176.694411,1379.59351 224.75554,1326.61288 271.961489,1309.21626 C286.15748,1303.99727 307.536986,1304.15542 318.996401,1309.53256 Z M579.847703,1416.24597 C604.610995,1460.92553 616.476739,1501.96101 616.476739,1542.04585 C616.476739,1564.54407 613.725262,1578.64506 606.502635,1592.42918 C602.37542,1600.50953 602.37542,1600.66797 604.954929,1612.55083 C610.457883,1636.9503 629.890188,1685.59081 651.558069,1729.00286 C666.519224,1758.94767 667.722995,1761.48268 666.691191,1761.48268 C666.347257,1761.48268 664.283649,1758.47235 662.220042,1754.82827 C656.029219,1743.57917 636.940848,1714.42655 623.699365,1695.73085 C604.610995,1669.11324 590.85361,1652.79411 574.344749,1637.10874 C559.727528,1623.00774 559.211627,1622.69087 548.549654,1620.94805 C487.501261,1611.28332 417.510568,1525.88516 393.951048,1432.24823 C388.963996,1412.28502 387.588257,1371.56642 391.371538,1355.56417 C395.154819,1339.72035 402.549413,1325.93623 411.491713,1318.01433 C452.591898,1281.57356 530.493087,1327.0453 579.847703,1416.24597 Z M301.778733,1065.45707 C386.278198,1069.2536 362.502033,1205.61225 260.726361,1300.20909 C221.726608,1336.4343 185.46368,1355.25875 151.082319,1357.31521 C132.779803,1358.26434 128.674566,1360.1626 104.385246,1378.3543 C84.5432661,1393.06585 37.3330387,1437.2005 16.1226466,1461.08699 C0.214852548,1478.64594 -5.08774547,1483.3916 5.51745056,1470.57831 C29.8067705,1440.83884 71.0301938,1380.72713 85.0564208,1354.78419 C97.2010807,1332.47958 97.7142354,1330.10675 94.6353075,1318.08441 C81.2932867,1265.88214 121.319349,1180.14387 187.003144,1119.71579 C208.042484,1100.41677 229.252876,1086.17979 252.002732,1076.05571 C272.69997,1067.03895 283.818321,1064.50793 301.778733,1065.45707 Z M446.261719,1065.53211 C464.594505,1066.32295 473.161228,1068.69548 493.892696,1078.1856 C561.569804,1109.0285 631.131591,1196.02129 646.380357,1268.93706 C649.464377,1284.12126 649.464377,1308.95375 646.209022,1320.18373 C643.296337,1330.62286 643.296337,1330.62286 658.031099,1357.82788 C671.737855,1382.81853 710.288107,1438.65209 733.760926,1467.43879 C742.498983,1478.0361 739.757632,1476.61258 729.306231,1465.06626 C691.783986,1423.46789 646.037688,1382.5022 616.910831,1364.3128 C607.316102,1358.46055 605.431423,1357.82788 595.494025,1357.82788 C529.872931,1357.66971 439.579675,1279.8507 402.914103,1191.75073 C391.777364,1165.49473 389.378681,1153.79024 389.207347,1127.69241 L389.207939,1125.66004 C389.222099,1104.39511 389.532882,1103.50525 394.518715,1093.68614 C401.029424,1081.03264 408.56814,1073.75688 420.561551,1068.69548 C428.785605,1065.21577 431.355622,1064.89943 446.261719,1065.53211 Z M325.244308,823.42826 C368.685038,843.65077 363.877369,917.431334 314.427051,992.475805 C293.135942,1024.70543 258.108633,1061.04275 229.262615,1080.47532 C201.103406,1099.43393 170.196957,1110.96708 147.017121,1110.96708 C135.513054,1110.96708 130.190277,1113.3369 109.242573,1128.18781 C93.1025385,1139.56297 46.3994606,1182.21983 23.7347317,1206.55003 C-1.33383215,1233.56604 -2.36404711,1234.51397 7.59469743,1221.55893 C50.5203205,1166.42099 83.143794,1117.12862 94.8195634,1090.11261 C98.0819108,1082.37118 98.0819108,1081.58124 95.5063734,1071.312 C79.8814466,1007.95866 140.149021,901.000545 222.222813,846.49456 C238.706252,835.593364 266.693758,822.954295 280.258255,820.268493 C294.852967,817.266714 315.285563,818.688609 325.244308,823.42826 Z M448.290606,818.889935 C480.923802,820.47188 514.415766,836.924113 552.545079,870.461357 C600.636104,912.541106 639.795938,976.293509 648.555375,1026.28299 C651.13168,1040.52049 650.101158,1070.57746 646.837838,1076.74705 C644.261533,1081.80927 644.776794,1083.39122 658.517087,1108.86054 C672.772641,1135.43722 710.901954,1190.80531 735.462727,1220.86228 C744.222164,1231.46131 741.474106,1230.03756 730.997132,1218.48936 C700.940242,1185.11031 658.17358,1145.56167 633.097546,1127.5275 C613.002367,1113.13179 608.708526,1111.23346 596.685769,1111.23346 C557.525935,1111.07526 507.373866,1083.23302 465.637726,1038.14758 C417.718455,986.41796 389.207347,927.569588 389.207347,879.95303 C389.207347,854.325513 397.279769,836.13314 412.737599,826.641467 C424.416847,819.522713 430.599979,818.098962 448.290606,818.889935 Z M299.077969,572.119259 C322.768228,572.119259 337.360055,580.018562 346.973494,597.870986 C372.552107,645.898747 334.270021,740.216423 261.997563,806.886539 C238.993977,828.214657 219.595431,841.643472 196.763515,851.912565 C177.364969,860.601799 162.258137,864.393464 146.636299,864.393464 C136.851192,864.393464 135.134506,865.025408 123.461045,872.134781 C116.594303,876.400404 106.637527,883.193805 101.487471,887.301442 C83.6339419,901.204215 44.4935131,937.85698 23.8932874,959.975028 C-1.34198902,986.990644 -2.37200031,987.93856 7.58477544,974.983704 C49.6435695,921.110458 83.4622734,870.080962 94.7923975,843.539304 C98.0540999,835.797988 98.0540999,835.008057 95.4790717,824.738964 C78.9988911,758.068848 146.121293,644.476873 231.955567,593.921335 C258.220855,578.438701 277.6194,572.119259 299.077969,572.119259 Z M444.911579,570.507655 C478.397956,570.507655 516.005732,589.328078 555.845934,625.861841 C567.69496,636.774524 580.917785,649.901373 585.21091,655.120482 C617.666937,694.817342 640.334638,737.835452 647.718813,774.21106 C650.981588,790.026542 650.294688,821.024886 646.516738,829.248936 C644.456038,833.993581 644.971213,835.416974 655.618163,855.660791 C671.416864,885.393897 707.65084,938.69207 735.298567,972.695356 C745.945517,985.664051 740.622042,980.761251 721.217116,960.04297 C696.66044,933.631116 654.759538,894.883186 636.384962,881.914491 C612.515186,864.83377 608.737236,863.094067 596.544761,863.094067 C520.642308,863.094067 413.657628,758.079269 392.707177,662.711914 C388.414052,643.733336 388.070602,620.800887 391.676827,608.148502 C396.485127,590.909627 409.192778,577.308312 424.991479,572.405513 C428.254254,571.298429 437.183954,570.507655 444.911579,570.507655 Z M323.857315,327.885438 C367.169133,346.860437 364.934793,417.067936 318.701147,490.59606 C272.983117,563.649809 200.968627,616.305434 146.656982,616.463559 C137.375878,616.463559 134.969666,617.254184 125.172946,622.946683 C99.0483574,638.601058 53.1584554,679.081058 17.4090186,718.454182 C0.221789402,737.429182 -2.35629498,739.484807 7.26855338,727.151057 C51.4397324,670.067933 83.0642342,622.472308 94.5796778,595.591059 C97.8452513,587.842934 97.8452513,587.052309 95.2671669,576.774184 C79.6267884,513.04981 140.641452,405.050437 222.796408,350.971687 C250.124102,332.945438 275.904946,323.932313 299.279578,323.932313 C312.17,323.932313 316.123062,324.564813 323.857315,327.885438 Z M493.756229,335.969139 C520.88057,348.76894 559.163658,378.63514 581.652827,404.86683 C615.300743,444.214364 639.849988,489.566743 647.575275,526.701966 C650.493717,541.556055 650.837063,567.155656 648.261967,576.320945 C647.231929,579.797434 646.201891,584.538101 646.201891,587.066457 C646.201891,592.439212 661.99581,622.463435 677.103038,645.850725 C688.433459,663.23317 723.798106,711.904015 735.300199,726.126016 C745.943928,739.083838 740.622064,734.185149 721.22301,713.484238 C696.673765,686.936504 654.785543,648.37908 636.416527,635.263236 C612.210628,618.196835 610.150552,617.248702 592.639902,616.142546 C547.489892,613.456168 493.927902,579.639412 450.666296,526.385922 C410.323131,476.608921 389.207347,428.254119 389.207347,385.588118 C389.207347,353.667629 401.739479,333.124739 425.773705,325.855717 C441.910971,321.11505 471.095388,325.38165 493.756229,335.969139 Z" id="path-7"></path>
    </defs>
    <g id="Land-Coverage" stroke="none" stroke-width="1" fill="none" fill-rule="evenodd">
        <rect fill="#4B5344" x="0" y="0" width="4000" height="4000"></rect>
        <g id="Netherlands" transform="translate(375.000000, 1001.000000)">
            <mask id="mask-2" fill="white">
                <use xlink:href="#path-1"></use>
            </mask>
            <use id="1992" fill="#558225" fill-rule="nonzero" transform="translate(370.347079, 1000.000000) scale(1, -1) translate(-370.347079, -1000.000000) " xlink:href="#path-1"></use>
            <rect id="2015" fill="#98CB63" mask="url(#mask-2)" x="5.68434189e-14" y="1108" width="740" height="891.6"></rect>
        </g>
        <g id="Nicaragua" transform="translate(1166.000000, 1001.000000)">
            <mask id="mask-4" fill="white">
                <use xlink:href="#path-3"></use>
            </mask>
            <use id="1992" fill="#558225" fill-rule="nonzero" transform="translate(370.347079, 1000.000000) scale(1, -1) translate(-370.347079, -1000.000000) " xlink:href="#path-3"></use>
            <rect id="2015" fill="#98CB63" mask="url(#mask-4)" x="0" y="1180" width="740" height="820.2"></rect>
        </g>
        <g id="New-Zealand" transform="translate(1957.000000, 1001.000000)">
            <mask id="mask-6" fill="white">
                <use xlink:href="#path-5"></use>
            </mask>
            <use id="1992" fill="#558225" fill-rule="nonzero" transform="translate(370.347079, 1000.000000) scale(1, -1) translate(-370.347079, -1000.000000) " xlink:href="#path-5"></use>
            <rect id="2015" fill="#98CB63" mask="url(#mask-6)" x="0" y="761" width="740" height="1239.2"></rect>
        </g>
        <g id="Nigeria" transform="translate(2748.000000, 1000.000000)">
            <mask id="mask-8" fill="white">
                <use xlink:href="#path-7"></use>
            </mask>
            <use id="1992" fill="#558225" fill-rule="nonzero" transform="translate(370.347079, 1000.000000) scale(1, -1) translate(-370.347079, -1000.000000) " xlink:href="#path-7"></use>
            <rect id="2015" fill="#98CB63" mask="url(#mask-8)" x="0" y="849" width="740" height="1151.4"></rect>
        </g>
        <text id="Comparative-land-cov" font-family="Avenir-Light, Avenir" font-size="42" font-weight="300">
            <tspan x="645" y="3931" fill="#D8D8D8">Comparative land coverage used for farming</tspan>
            <tspan x="1478.406" y="3931" fill="#979797"> (&gt; 50% cropland / &lt; 50 % natural tree, shrub, herbaceous cover) </tspan>
            <tspan x="2682.63" y="3931" fill="#D8D8D8">in 2015 vs 1992 across four countries</tspan>
        </text>
        <line x1="279.5" y1="2000" x2="3632.5" y2="2000.5" id="Line" stroke="#979797" stroke-linecap="square"></line>
        <text id="1992" font-family="Avenir-Light, Avenir" font-size="42" font-weight="300" fill="#979797">
            <tspan x="3632" y="2013">1992</tspan>
        </text>
        <text id="NL" font-family="Avenir-Light, Avenir" font-size="42" font-weight="300" fill="#D8D8D8">
            <tspan x="718" y="933">NL</tspan>
        </text>
        <text id="NI" font-family="Avenir-Light, Avenir" font-size="42" font-weight="300" fill="#D8D8D8">
            <tspan x="1515" y="933">NI</tspan>
        </text>
        <text id="NZ" font-family="Avenir-Light, Avenir" font-size="42" font-weight="300" fill="#D8D8D8">
            <tspan x="2299" y="933">NZ</tspan>
        </text>
        <text id="NG" font-family="Avenir-Light, Avenir" font-size="42" font-weight="300" fill="#D8D8D8">
            <tspan x="3086" y="933">NG</tspan>
        </text>
    </g>
</svg>