<?xml version="1.0" encoding="UTF-8"?>
<svg width="556px" height="515px" viewBox="0 0 556 515" version="1.1" xmlns="http://www.w3.org/2000/svg" xmlns:xlink="http://www.w3.org/1999/xlink">
    <!-- Generator: Sketch 62 (91390) - https://sketch.com -->
    <title>Mean SST 1981-2016 v3</title>
    <desc>Created with Sketch.</desc>
    <g id="Mean-SST-1981-2016" stroke="none" stroke-width="1" fill="none" fill-rule="evenodd">
        <rect fill="#045D9C" x="0" y="0" width="556" height="515"></rect>
        <g id="Data" transform="translate(154.561358, 36.000000)">
            <path d="M123.438642,459 C191.611922,459 246.877285,388.721079 246.877285,302.027636 C246.877285,244.232007 205.73107,143.556128 123.438642,0 C41.1462141,143.556128 -2.84217094e-14,244.232007 -2.84217094e-14,302.027636 C-2.84217094e-14,388.719142 55.2653626,459 123.438642,459 Z" id="16" fill="#FAFA6E"></path>
            <path d="M123.438642,462 C191.611922,462 246.877285,391.721079 246.877285,305.027636 C246.877285,247.232007 205.73107,146.556128 123.438642,3 C41.1462141,146.556128 -2.84217094e-14,247.232007 -2.84217094e-14,305.027636 C-2.84217094e-14,391.719142 55.2653626,462 123.438642,462 Z" id="15" fill="#D4FA75"></path>
            <path d="M123.438642,460 C190.869294,460 245.532637,390.486644 245.532637,304.737574 C245.532637,247.571528 204.834639,147.992336 123.438642,6 C42.0426458,147.992336 1.34464752,247.571528 1.34464752,304.737574 C1.34464752,390.484729 56.0079909,460 123.438642,460 Z" id="14" fill="#98F78B"></path>
            <path d="M123.438642,458 C190.126665,458 244.18799,389.25221 244.18799,304.447513 C244.18799,247.911048 203.938207,149.428544 123.438642,9 C42.9390775,149.428544 2.68929504,247.911048 2.68929504,304.447513 C2.68929504,389.250315 56.7506193,458 123.438642,458 Z" id="13" fill="#4BF1A8"></path>
            <path d="M123.438642,456 C189.384037,456 242.843342,388.017775 242.843342,304.157451 C242.843342,248.250569 203.041775,150.864752 123.438642,12 C43.8355091,150.864752 4.03394256,248.250569 4.03394256,304.157451 C4.03394256,388.015902 57.4932476,456 123.438642,456 Z" id="12" fill="#19EFB3"></path>
            <path d="M123.438642,454 C188.641409,454 241.498695,386.783341 241.498695,303.86739 C241.498695,248.590089 202.145344,152.300959 123.438642,15 C44.7319408,152.300959 5.37859008,248.590089 5.37859008,303.86739 C5.37859008,386.781489 58.2358759,454 123.438642,454 Z" id="11" fill="#00E8C7"></path>
            <path d="M123.438642,452 C187.89878,452 240.154047,385.548907 240.154047,303.577329 C240.154047,248.92961 201.248912,153.737167 123.438642,18 C45.6283725,153.737167 6.7232376,248.92961 6.7232376,303.577329 C6.7232376,385.547075 58.9785042,452 123.438642,452 Z" id="10" fill="#4BF1A8"></path>
            <path d="M123.438642,450 C187.156152,450 238.809399,384.314472 238.809399,303.287267 C238.809399,249.269131 200.35248,155.173375 123.438642,21 C46.5248042,155.173375 8.06788512,249.269131 8.06788512,303.287267 C8.06788512,384.312662 59.7211325,450 123.438642,450 Z" id="09" fill="#00ECBD"></path>
            <path d="M123.438642,448 C186.413524,448 237.464752,383.080038 237.464752,302.997206 C237.464752,249.608651 199.456049,156.609583 123.438642,24 C47.4212359,156.609583 9.41253264,249.608651 9.41253264,302.997206 C9.41253264,383.078249 60.4637609,448 123.438642,448 Z" id="08" fill="#00D9EB"></path>
            <path d="M123.438642,446 C185.670895,446 236.120104,381.845603 236.120104,302.707144 C236.120104,249.948172 198.559617,158.04579 123.438642,27 C48.3176675,158.04579 10.7571802,249.948172 10.7571802,302.707144 C10.7571802,381.843835 61.2063892,446 123.438642,446 Z" id="07" fill="#00E1DA"></path>
            <path d="M123.438642,444 C184.928267,444 234.775457,380.611169 234.775457,302.417083 C234.775457,250.287693 197.663185,159.481998 123.438642,30 C49.2140992,159.481998 12.1018277,250.287693 12.1018277,302.417083 C12.1018277,380.609422 61.9490175,444 123.438642,444 Z" id="06" fill="#00E8C7"></path>
            <path d="M123.438642,442 C184.185639,442 233.430809,379.376735 233.430809,302.127022 C233.430809,250.627213 196.766754,160.918206 123.438642,33 C50.1105309,160.918206 13.4464752,250.627213 13.4464752,302.127022 C13.4464752,379.375009 62.6916458,442 123.438642,442 Z" id="05" fill="#00ECBD"></path>
            <path d="M123.438642,440 C183.44301,440 232.086162,378.1423 232.086162,301.83696 C232.086162,250.966734 195.870322,162.354414 123.438642,36 C51.0069626,162.354414 14.7911227,250.966734 14.7911227,301.83696 C14.7911227,378.140595 63.4342741,440 123.438642,440 Z" id="04" fill="#00E8C7"></path>
            <path d="M123.438642,438 C182.700382,438 230.741514,376.907866 230.741514,301.546899 C230.741514,251.306254 194.97389,163.790621 123.438642,39 C51.9033943,163.790621 16.1357702,251.306254 16.1357702,301.546899 C16.1357702,376.906182 64.1769024,438 123.438642,438 Z" id="03" fill="#00ECBD"></path>
            <path d="M123.438642,436 C181.957754,436 229.396867,375.673431 229.396867,301.256838 C229.396867,251.645775 194.077459,165.226829 123.438642,42 C52.7998259,165.226829 17.4804178,251.645775 17.4804178,301.256838 C17.4804178,375.671769 64.9195308,436 123.438642,436 Z" id="02" fill="#00E5D1"></path>
            <path d="M123.438642,434 C181.215126,434 228.052219,374.438997 228.052219,300.966776 C228.052219,251.985296 193.181027,166.663037 123.438642,45 C53.6962576,166.663037 18.8250653,251.985296 18.8250653,300.966776 C18.8250653,374.437356 65.6621591,434 123.438642,434 Z" id="01" fill="#00E1DA"></path>
            <path d="M123.438642,432 C180.472497,432 226.707572,373.204562 226.707572,300.676715 C226.707572,252.324816 192.284595,168.099245 123.438642,48 C54.5926893,168.099245 20.1697128,252.324816 20.1697128,300.676715 C20.1697128,373.202942 66.4047874,432 123.438642,432 Z" id="00" fill="#00D4F2"></path>
            <path d="M123.438642,431 C179.878395,431 225.631854,372.817015 225.631854,301.044666 C225.631854,253.196433 191.56745,169.848211 123.438642,51 C55.3098346,169.848211 21.2454308,253.196433 21.2454308,301.044666 C21.2454308,372.815412 66.9988901,431 123.438642,431 Z" id="99" fill="#00CAFD"></path>
            <path d="M123.438642,429 C179.135766,429 224.287206,371.582581 224.287206,300.754604 C224.287206,253.535953 190.671018,171.284419 123.438642,54 C56.2062663,171.284419 22.5900783,253.535953 22.5900783,300.754604 C22.5900783,371.580998 67.7415184,429 123.438642,429 Z" id="98" fill="#00E8C7"></path>
            <path d="M123.438642,427 C178.393138,427 222.942559,370.348146 222.942559,300.464543 C222.942559,253.875474 189.774587,172.720626 123.438642,57 C57.102698,172.720626 23.9347258,253.875474 23.9347258,300.464543 C23.9347258,370.346585 68.4841467,427 123.438642,427 Z" id="97" fill="#00E1DA"></path>
            <path d="M123.438642,425 C177.65051,425 221.597911,369.113712 221.597911,300.174481 C221.597911,254.214995 188.878155,174.156834 123.438642,60 C57.9991297,174.156834 25.2793734,254.214995 25.2793734,300.174481 C25.2793734,369.112172 69.226775,425 123.438642,425 Z" id="96" fill="#00BFFF"></path>
            <path d="M123.438642,423 C176.907881,423 220.253264,367.879277 220.253264,299.88442 C220.253264,254.554515 187.981723,175.593042 123.438642,63 C58.8955614,175.593042 26.6240209,254.554515 26.6240209,299.88442 C26.6240209,367.877758 69.9694033,423 123.438642,423 Z" id="95" fill="#00CAFD"></path>
            <path d="M123.438642,421 C176.165253,421 218.908616,366.644843 218.908616,299.594359 C218.908616,254.894036 187.085292,177.02925 123.438642,66 C59.791993,177.02925 27.9686684,254.894036 27.9686684,299.594359 C27.9686684,366.643345 70.7120317,421 123.438642,421 Z" id="94" fill="#00B9FF"></path>
            <path d="M123.438642,419 C175.422625,419 217.563969,365.410409 217.563969,299.304297 C217.563969,255.233556 186.18886,178.465457 123.438642,69 C60.6884247,178.465457 29.3133159,255.233556 29.3133159,299.304297 C29.3133159,365.408932 71.45466,419 123.438642,419 Z" id="93" fill="#00B9FF"></path>
            <path d="M123.438642,417 C174.679996,417 216.219321,364.175974 216.219321,299.014236 C216.219321,255.573077 185.292428,179.901665 123.438642,72 C61.5848564,179.901665 30.6579634,255.573077 30.6579634,299.014236 C30.6579634,364.174518 72.1972883,417 123.438642,417 Z" id="92" fill="#00B3FF"></path>
            <path d="M123.438642,415 C173.937368,415 214.874674,362.94154 214.874674,298.724175 C214.874674,255.912598 184.395997,181.337873 123.438642,75 C62.4812881,181.337873 32.002611,255.912598 32.002611,298.724175 C32.002611,362.940105 72.9399166,415 123.438642,415 Z" id="91" fill="#00CAFD"></path>
            <path d="M123.438642,413 C173.19474,413 213.530026,361.707105 213.530026,298.434113 C213.530026,256.252118 183.499565,182.774081 123.438642,78 C63.3777198,182.774081 33.3472585,256.252118 33.3472585,298.434113 C33.3472585,361.705692 73.6825449,413 123.438642,413 Z" id="90" fill="#00E1DA"></path>
            <path d="M123.438642,411 C172.452111,411 212.185379,360.472671 212.185379,298.144052 C212.185379,256.591639 182.603133,184.210288 123.438642,81 C64.2741514,184.210288 34.691906,256.591639 34.691906,298.144052 C34.691906,360.471278 74.4251732,411 123.438642,411 Z" id="89" fill="#00BFFF"></path>
            <path d="M123.438642,409 C171.709483,409 210.840731,359.238236 210.840731,297.85399 C210.840731,256.93116 181.706701,185.646496 123.438642,84 C65.1705831,185.646496 36.0365535,256.93116 36.0365535,297.85399 C36.0365535,359.236865 75.1678016,409 123.438642,409 Z" id="88" fill="#00C5FF"></path>
            <path d="M123.438642,406 C170.966855,406 209.496084,357.003802 209.496084,296.563929 C209.496084,256.27068 180.81027,186.082704 123.438642,86 C66.0670148,186.082704 37.381201,256.27068 37.381201,296.563929 C37.381201,357.002452 75.9104299,406 123.438642,406 Z" id="87" fill="#00CAFD"></path>
            <path d="M123.438642,403 C170.224226,403 208.151436,354.769368 208.151436,295.273868 C208.151436,255.610201 179.913838,186.518912 123.438642,88 C66.9634465,186.518912 38.7258486,255.610201 38.7258486,295.273868 C38.7258486,354.768039 76.6530582,403 123.438642,403 Z" id="86" fill="#00B3FF"></path>
            <path d="M123.438642,400 C169.481598,400 206.806789,352.534933 206.806789,293.983806 C206.806789,254.949721 179.017406,186.955119 123.438642,90 C67.8598782,186.955119 40.0704961,254.949721 40.0704961,293.983806 C40.0704961,352.533625 77.3956865,400 123.438642,400 Z" id="85" fill="#00ADFF"></path>
            <path d="M123.438642,398 C168.73897,398 205.462141,351.300499 205.462141,293.693745 C205.462141,255.289242 178.120975,188.391327 123.438642,93 C68.7563098,188.391327 41.4151436,255.289242 41.4151436,293.693745 C41.4151436,351.299212 78.1383148,398 123.438642,398 Z" id="84" fill="#00A6FF"></path>
            <path d="M123.438642,396 C167.996341,396 204.117493,350.066064 204.117493,293.403683 C204.117493,255.628763 177.224543,189.827535 123.438642,96 C69.6527415,189.827535 42.7597911,255.628763 42.7597911,293.403683 C42.7597911,350.064799 78.8809432,396 123.438642,396 Z" id="83" fill="#00D4F2"></path>
            <path d="M123.438642,394 C167.253713,394 202.772846,348.83163 202.772846,293.113622 C202.772846,255.968283 176.328111,191.263743 123.438642,99 C70.5491732,191.263743 44.1044386,255.968283 44.1044386,293.113622 C44.1044386,348.830385 79.6235715,394 123.438642,394 Z" id="82" fill="#00B3FF"></path>
            <path d="M123.438642,392 C166.511085,392 201.428198,347.597196 201.428198,292.823561 C201.428198,256.307804 175.43168,192.69995 123.438642,102 C71.4456049,192.69995 45.4490862,256.307804 45.4490862,292.823561 C45.4490862,347.595972 80.3661998,392 123.438642,392 Z" id="81" fill="#00ADFF"></path>
        </g>
        <g id="Labels" transform="translate(269.000000, 26.000000)" fill="#FFFFFF" font-family="Avenir-Book, Avenir" font-size="8" font-weight="normal">
            <text id="1981">
                <tspan x="0" y="129">1981</tspan>
            </text>
            <text id="2016">
                <tspan x="0" y="8">2016</tspan>
            </text>
        </g>
    </g>
</svg>